<svg xmlns="http://www.w3.org/2000/svg" shape-rendering="geometricPrecision" text-rendering="geometricPrecision" image-rendering="optimizeQuality" fill-rule="evenodd" clip-rule="evenodd" viewBox="0 0 512 477.381"><path fill="#3F3F3F" d="M13.908 128.811h192.57l-33.287-57.667c3.212-16.043 12.557-21.44 28.054-16.195l42.641 73.862h16.827l75.873-127.35c14.64-3.743 25.492-.958 28.067 16.194l-66.172 111.156h199.611c7.656 0 13.908 6.255 13.908 13.908v320.754c0 7.644-6.257 13.908-13.908 13.908H13.911C6.265 477.381 0 471.117 0 463.473V142.719c0-7.653 6.265-13.908 13.908-13.908z"/><path fill="#6CC0EF" d="M42.386 158.028h427.218c6.163 0 11.197 5 11.197 11.103v229.627c0 6.105-5.047 11.103-11.197 11.103H42.386c-6.151 0-11.197-4.998-11.197-11.103V169.131c0-6.103 5.037-11.103 11.197-11.103z"/><path fill="#7BC6F1" d="M42.386 158.028h427.218c6.163 0 11.197 5 11.197 11.103v229.627c0 6.105-5.047 11.103-11.197 11.103-247.953-153.262-206.237-29.223-438.415-240.73 0-6.103 5.037-11.103 11.197-11.103z"/><path fill="#292929" d="M37.619 429.224h136.108c2.098 0 3.807 1.721 3.807 3.819v20.647c0 2.098-1.711 3.819-3.807 3.819H37.619c-2.098 0-3.807-1.721-3.807-3.819v-20.647a3.82 3.82 0 013.807-3.814v-.005zm401.518-3.965c9.994 0 18.104 8.105 18.104 18.104 0 9.997-8.104 18.106-18.104 18.106-9.997 0-18.106-8.107-18.106-18.106 0-9.994 8.107-18.104 18.106-18.104z"/></svg>